 <svg width="27" height="27" viewBox="0 0 27 27" fill="none" xmlns="http://www.w3.org/2000/svg">
<path d="M21.6667 21.5C20.1867 21.5 19 22.6867 19 24.1667C19 24.8739 19.281 25.5522 19.7811 26.0523C20.2812 26.5524 20.9595 26.8333 21.6667 26.8333C22.374 26.8333 23.0522 26.5524 23.5523 26.0523C24.0524 25.5522 24.3334 24.8739 24.3334 24.1667C24.3334 23.4594 24.0524 22.7811 23.5523 22.281C23.0522 21.781 22.374 21.5 21.6667 21.5ZM0.333374 0.166668V2.83333H3.00004L7.80004 12.9533L5.98671 16.22C5.78671 16.5933 5.66671 17.0333 5.66671 17.5C5.66671 18.2072 5.94766 18.8855 6.44776 19.3856C6.94785 19.8857 7.62613 20.1667 8.33337 20.1667H24.3334V17.5H8.89337C8.80497 17.5 8.72018 17.4649 8.65767 17.4024C8.59516 17.3399 8.56004 17.2551 8.56004 17.1667C8.56004 17.1 8.57337 17.0467 8.60004 17.0067L9.80004 14.8333H19.7334C20.7334 14.8333 21.6134 14.2733 22.0667 13.46L26.84 4.83333C26.9334 4.62 27 4.39333 27 4.16667C27 3.81305 26.8596 3.47391 26.6095 3.22386C26.3595 2.97381 26.0203 2.83333 25.6667 2.83333H5.94671L4.69337 0.166668M8.33337 21.5C6.85337 21.5 5.66671 22.6867 5.66671 24.1667C5.66671 24.8739 5.94766 25.5522 6.44776 26.0523C6.94785 26.5524 7.62613 26.8333 8.33337 26.8333C9.04062 26.8333 9.71889 26.5524 10.219 26.0523C10.7191 25.5522 11 24.8739 11 24.1667C11 23.4594 10.7191 22.7811 10.219 22.281C9.71889 21.781 9.04062 21.5 8.33337 21.5Z" fill="#F3B7AD"/>
</svg>

