<svg width="26" height="27" viewBox="0 0 26 27" fill="none" xmlns="http://www.w3.org/2000/svg">
<path d="M25 25.5L19.2094 19.7093M19.2094 19.7093C20.1999 18.7188 20.9856 17.5429 21.5217 16.2487C22.0577 14.9546 22.3336 13.5675 22.3336 12.1667C22.3336 10.7659 22.0577 9.37878 21.5217 8.08461C20.9856 6.79043 20.1999 5.61452 19.2094 4.624C18.2188 3.63348 17.0429 2.84776 15.7488 2.3117C14.4546 1.77563 13.0675 1.49973 11.6667 1.49973C10.2659 1.49973 8.87881 1.77563 7.58464 2.3117C6.29046 2.84776 5.11455 3.63348 4.12403 4.624C2.12359 6.62444 0.999756 9.33762 0.999756 12.1667C0.999756 14.9957 2.12359 17.7089 4.12403 19.7093C6.12447 21.7098 8.83765 22.8336 11.6667 22.8336C14.4957 22.8336 17.2089 21.7098 19.2094 19.7093Z" stroke="white" stroke-width="1.5" stroke-linecap="round" stroke-linejoin="round"/>
</svg>
