<svg width="24" height="25" viewBox="0 0 24 25" fill="none" xmlns="http://www.w3.org/2000/svg">
<path d="M12 12.5C13.5913 12.5 15.1174 11.8679 16.2427 10.7426C17.3679 9.61742 18 8.0913 18 6.5C18 4.9087 17.3679 3.38258 16.2427 2.25736C15.1174 1.13214 13.5913 0.5 12 0.5C10.4087 0.5 8.8826 1.13214 7.75738 2.25736C6.63217 3.38258 6.00003 4.9087 6.00003 6.5C6.00003 8.0913 6.63217 9.61742 7.75738 10.7426C8.8826 11.8679 10.4087 12.5 12 12.5ZM21.47 24.5C22.706 24.5 23.656 23.378 23.214 22.222C22.347 19.9501 20.8104 17.9952 18.8077 16.6159C16.805 15.2367 14.4307 14.4982 11.999 14.4982C9.56734 14.4982 7.193 15.2367 5.19032 16.6159C3.18764 17.9952 1.65107 19.9501 0.784025 22.222C0.344025 23.378 1.29203 24.5 2.52803 24.5H21.47Z" fill="#F3B7AD"/>
</svg>
