<svg width="30" height="15" viewBox="0 0 30 15" fill="none" xmlns="http://www.w3.org/2000/svg">
<path d="M27.6726 0.392409L15.9601 11.9199C15.7046 12.1727 15.3596 12.3145 15.0001 12.3145C14.6406 12.3145 14.2957 12.1727 14.0401 11.9199L2.32761 0.394911C2.07047 0.142221 1.72438 0.000630379 1.36386 0.000630379C1.00335 0.000630379 0.657251 0.142221 0.400112 0.394911C0.273491 0.518353 0.172861 0.665893 0.104153 0.828835C0.0354424 0.991776 4.3869e-05 1.16683 4.3869e-05 1.34366C4.3869e-05 1.5205 0.0354424 1.69554 0.104153 1.85849C0.172861 2.02143 0.273491 2.16897 0.400112 2.29241L12.1101 13.8174C12.8814 14.5747 13.9192 14.999 15.0001 14.999C16.0811 14.999 17.1188 14.5747 17.8901 13.8174L29.6001 2.29241C29.7271 2.16893 29.8281 2.02123 29.897 1.85806C29.9659 1.69489 30.0015 1.51955 30.0015 1.34241C30.0015 1.16527 29.9659 0.989934 29.897 0.82676C29.8281 0.663587 29.7271 0.515891 29.6001 0.392409C29.343 0.13972 28.9969 -0.00187016 28.6364 -0.00187111C28.2758 -0.00187016 27.9298 0.13972 27.6726 0.392409Z" fill="#EC6A52"/>
</svg>
