<svg width="24" height="16" viewBox="0 0 24 16" fill="none" xmlns="http://www.w3.org/2000/svg">
<path fill-rule="evenodd" clip-rule="evenodd" d="M1.62624 1.39187L1.7598 1.24162C2.24931 0.729739 2.97856 0.473633 3.94688 0.473633H20.542C21.4546 0.473633 22.1558 0.696348 22.6456 1.14144L22.6623 1.15814C22.7625 1.24729 22.863 1.35281 22.9628 1.47535C22.9628 1.4867 22.9685 1.49772 22.9795 1.50874L22.9962 1.52544C23.3638 1.98189 23.5472 2.62733 23.5472 3.46209V12.9116C23.5361 14.9151 22.5344 15.9168 20.542 15.9168H3.94688C1.95447 15.9058 0.958427 14.904 0.958427 12.9116V3.46209C0.958427 2.56054 1.18114 1.87036 1.62624 1.39187ZM21.0929 2.10977C20.926 2.06536 20.7423 2.04833 20.5423 2.05969H3.94688C3.82434 2.04867 3.70747 2.05401 3.59628 2.07638L12.1944 10.7913L21.0929 2.10977ZM2.54448 3.27844C2.53346 3.3342 2.53346 3.39531 2.54448 3.46209V12.9116C2.54448 13.8579 3.01195 14.3307 3.94688 14.3307H20.542C21.488 14.3307 21.9611 13.8579 21.9611 12.9116V3.47879L12.7453 12.4775C12.5783 12.6335 12.3894 12.7113 12.178 12.7113C11.9553 12.7003 11.766 12.6221 11.6104 12.4775L2.54448 3.27844Z" fill="#EC6A52"/>
<path fill-rule="evenodd" clip-rule="evenodd" d="M1.62624 1.39147C1.64861 1.35808 1.67633 1.32469 1.70972 1.2913C1.72107 1.26892 1.73743 1.25223 1.7598 1.24121L1.62624 1.39147Z" fill="#EC6A52"/>
</svg>
