<svg width="24" height="25" viewBox="0 0 24 25" fill="none" xmlns="http://www.w3.org/2000/svg">
<g clip-path="url(#clip0_34_2363)">
<path d="M12.8531 6.92001C14.0273 7.12157 15.1008 7.67704 15.9562 8.53016C16.807 9.38094 17.3648 10.4544 17.5664 11.6309C17.6437 12.095 18.0422 12.4302 18.5133 12.4302C18.5742 12.4302 18.6281 12.4231 18.6656 12.4161C18.668 12.4161 18.6703 12.4161 18.6727 12.4138C18.9281 12.3716 19.1508 12.2333 19.2984 12.02C19.4461 11.8091 19.5023 11.5559 19.4578 11.3052C19.1906 9.73485 18.45 8.30516 17.3133 7.16844C16.1719 6.03173 14.7398 5.2911 13.1719 5.02626H13.1695C12.6469 4.93954 12.1523 5.29345 12.0656 5.81376C11.9836 6.33876 12.3351 6.83329 12.8531 6.92001Z" fill="#EC6A52"/>
<path d="M18.7617 14.9656C18.2367 14.4195 17.6016 14.1312 16.9242 14.1312C16.2539 14.1312 15.6141 14.4148 15.0773 14.9539L13.7437 16.2875C13.7109 16.2711 13.6781 16.2547 13.6476 16.2383L13.5797 16.2055C13.4367 16.1328 13.2726 16.0508 13.1367 15.9664C11.768 15.0969 10.5187 13.9578 9.31405 12.4813C8.79843 11.832 8.43749 11.2812 8.17265 10.7328C8.5078 10.4164 8.81952 10.1 9.11249 9.8C9.17811 9.73437 9.24374 9.66641 9.31171 9.59844C9.37733 9.53047 9.4453 9.4625 9.51327 9.39453C10.0711 8.83672 10.3664 8.18984 10.3641 7.52422C10.3641 6.86094 10.0687 6.21641 9.51327 5.66328L8.21718 4.36719C8.14218 4.29219 8.06718 4.21719 7.99452 4.14219C7.92186 4.06719 7.84686 3.99219 7.77421 3.91953L7.67108 3.81406C7.41561 3.55391 7.15077 3.28438 6.88358 3.03828C6.36327 2.52031 5.7328 2.24609 5.06483 2.24609C4.39921 2.24609 3.76405 2.52031 3.22264 3.03828C3.2203 3.04063 3.21796 3.04062 3.21796 3.04297L1.59374 4.66484C0.930457 5.32812 0.553113 6.13672 0.471082 7.06719V7.06953C0.384363 8.17109 0.583582 9.33359 1.09921 10.7281C1.87968 12.8375 3.05155 14.7922 4.78358 16.8781C6.89764 19.3977 9.43593 21.3852 12.3258 22.7844H12.3281C13.4414 23.3164 14.9367 23.9398 16.6242 24.05C16.6266 24.05 16.6289 24.05 16.6312 24.05H16.643C16.7391 24.0547 16.8398 24.0594 16.9453 24.0594C18.1289 24.0594 19.1273 23.6305 19.9101 22.7844L19.9219 22.7727C19.9312 22.7633 19.9383 22.7563 19.9453 22.7469C20.1797 22.4656 20.4492 22.2055 20.7516 21.9148C20.9601 21.7156 21.1734 21.5117 21.3797 21.2914C21.9117 20.7359 22.193 20.0891 22.1906 19.4211C22.1883 18.7508 21.9023 18.1109 21.3633 17.5719L18.7617 14.9656ZM18.5039 21.4977C18.0867 21.943 17.6086 22.1422 16.957 22.1422C16.8961 22.1422 16.8281 22.1375 16.7578 22.1328C15.4078 22.0461 14.1305 21.5117 13.1695 21.0547C10.5164 19.7773 8.19139 17.9586 6.2578 15.6477C4.67577 13.7422 3.60936 11.9656 2.90389 10.0625C2.48202 8.93047 2.32264 8.05391 2.38827 7.22656C2.43046 6.74375 2.61093 6.35938 2.95546 6.01953L4.56796 4.40703C4.73671 4.24531 4.91014 4.15859 5.07186 4.15859C5.22421 4.15859 5.38593 4.24297 5.55702 4.40938C5.55936 4.41172 5.56171 4.41406 5.56405 4.41641C5.84296 4.67891 6.11483 4.95547 6.40311 5.24609L6.41249 5.25547C6.55077 5.39844 6.71014 5.5625 6.87186 5.71953L8.16561 7.01328C8.54296 7.39062 8.54296 7.65547 8.16561 8.03281C8.02968 8.16875 7.89139 8.30703 7.75546 8.44766L7.65936 8.54609C7.29608 8.91406 6.95389 9.26094 6.58124 9.59141C6.57655 9.59609 6.56952 9.60078 6.56483 9.60781L6.5414 9.63125C6.1453 10.0273 6.03749 10.5008 6.22264 11.0352C6.22733 11.0492 6.23202 11.0609 6.23671 11.0727C6.23905 11.0797 6.24139 11.0867 6.24608 11.0938C6.59296 11.9305 7.08046 12.725 7.83046 13.6742C7.83046 13.6766 7.8328 13.6766 7.8328 13.6789C9.16405 15.3172 10.568 16.5969 12.1266 17.5859C12.3305 17.7148 12.5414 17.8227 12.7383 17.9211C12.8836 17.9937 13.0476 18.0781 13.1836 18.1602C13.193 18.1672 13.2023 18.1719 13.2117 18.1766L13.2187 18.1813C13.2328 18.1883 13.2469 18.1977 13.2633 18.2047C13.4672 18.3078 13.6687 18.357 13.8773 18.357C14.2336 18.357 14.5617 18.2094 14.8266 17.9305L16.4484 16.3086C16.5656 16.1914 16.7484 16.0508 16.9406 16.0508C17.1187 16.0508 17.2922 16.1891 17.4047 16.3063C17.407 16.3086 17.407 16.3086 17.4094 16.3109L20.0273 18.9289C20.2851 19.1867 20.4609 19.4914 20.0062 19.9695L20.0039 19.9719C19.8609 20.1266 19.7086 20.2742 19.5469 20.4313C19.5117 20.4641 19.4766 20.4992 19.4414 20.5344C19.1133 20.8414 18.7992 21.1461 18.5039 21.4977Z" fill="#EC6A52"/>
<path d="M23.5336 11.1174C23.1024 8.57909 21.9024 6.26347 20.0625 4.42362C18.2156 2.58143 15.9 1.38143 13.3594 0.952527C12.8367 0.865809 12.3422 1.21972 12.2555 1.74003C12.1688 2.26268 12.5227 2.75722 13.0406 2.84393C15.1899 3.20956 17.1469 4.22675 18.7031 5.78065C20.2594 7.3369 21.2742 9.29393 21.6399 11.4408C21.7172 11.9049 22.1156 12.24 22.5867 12.24C22.5891 12.24 22.5914 12.24 22.5938 12.24C22.6524 12.24 22.7016 12.233 22.7391 12.226C22.7414 12.226 22.7438 12.226 22.7461 12.2236C23.0016 12.1814 23.2242 12.0432 23.3719 11.8299C23.5219 11.6213 23.5781 11.3682 23.5336 11.1174Z" fill="#EC6A52"/>
</g>
<defs>
<clipPath id="clip0_34_2363">
<rect width="24" height="24" fill="white" transform="translate(0 0.5)"/>
</clipPath>
</defs>
</svg>
